<?xml version="1.0" standalone="no"?>
<!DOCTYPE svg PUBLIC "-//W3C//DTD SVG 20010904//EN"
 "http://www.w3.org/TR/2001/REC-SVG-20010904/DTD/svg10.dtd">
<svg version="1.0" xmlns="http://www.w3.org/2000/svg"
 width="601.000000pt" height="601.000000pt" viewBox="0 0 601.000000 601.000000"
 preserveAspectRatio="xMidYMid meet">
<metadata>
Created by potrace 1.14, written by Peter Selinger 2001-2017
</metadata>
<g transform="translate(0.000000,601.000000) scale(0.100000,-0.100000)"
fill="#000000" stroke="none">
<path d="M810 3075 l0 -2235 1625 0 1625 0 0 275 0 275 -1305 0 -1305 0 0 725
0 725 1120 0 1120 0 0 270 0 270 -1120 0 -1120 0 0 690 0 690 1260 0 1260 0 0
275 0 275 -1580 0 -1580 0 0 -2235z"/>
<path d="M4435 1653 c-113 -41 -200 -114 -248 -210 -61 -121 -63 -273 -5 -396
80 -167 229 -254 418 -245 74 3 98 9 154 37 219 107 306 381 194 608 -38 77
-117 154 -195 191 -77 35 -239 43 -318 15z"/>
</g>
</svg>
