<svg width="18" height="15" viewBox="0 0 18 15" aria-hidden="true" focusable="false" xmlns="http://www.w3.org/2000/svg" version="1.1">
  <path fill="currentColor" d="M0,12.678c1.649,1.061 3.569,1.624 5.53,1.623c6.697,0 10.478,-5.658 10.25,-10.73c0.706,-0.51 1.315,-1.142 1.8,-1.866c-0.658,0.291 -1.357,0.482 -2.072,0.565c0.755,-0.449 1.32,-1.159 1.588,-1.996c-0.713,0.423 -1.494,0.72 -2.308,0.877c-0.682,-0.734 -1.64,-1.151 -2.642,-1.151c-1.98,0 -3.608,1.629 -3.608,3.608c-0,0.28 0.032,0.559 0.097,0.832c-2.89,-0.151 -5.585,-1.521 -7.412,-3.766c-0.951,1.64 -0.457,3.764 1.12,4.816c-0.574,-0.017 -1.135,-0.173 -1.635,-0.454c-0.021,1.727 1.199,3.24 2.892,3.584c-0.532,0.144 -1.089,0.166 -1.63,0.062c0.472,1.465 1.83,2.474 3.368,2.504c-1.51,1.186 -3.432,1.723 -5.338,1.492Z"/>
</svg>