<svg viewBox="0 0 24 24" xmlns="http://www.w3.org/2000/svg"><path d="m24 22.8181818h-5.3043273v-7.6699633c0-2.0076025-.8297274-3.378137-2.6542805-3.378137-1.3955782 0-2.1716837.9248663-2.5329257 1.8162027-.1354658.319931-.1142989.7655993-.1142989 1.2112674v8.0206302h-5.25493905s.0677329-13.58659269 0-14.82161049h5.25493905v2.32613649c.3104422-1.01707351 1.9896519-2.46863851 4.669332-2.46863851 3.3245531 0 5.9365004 2.13194247 5.9365004 6.72274381zm-21.17497636-16.67553424h-.03386673c-1.69332055 0-2.79115691-1.133031-2.79115691-2.56922815 0-1.46413873 1.13029145-2.57341941 2.85747873-2.57341941 1.72577618 0 2.78692363 1.10648652 2.82079036 2.56922817 0 1.43619718-1.09501418 2.57341939-2.85324545 2.57341939zm-2.21966128 1.85392375h4.67779855v14.82161049h-4.67779855z" fill="currentColor"/></svg>