<?xml version="1.0" encoding="UTF-8" standalone="no"?>
<!DOCTYPE svg PUBLIC "-//W3C//DTD SVG 1.1//EN" "http://www.w3.org/Graphics/SVG/1.1/DTD/svg11.dtd">
<svg width="24" height="17" viewBox="0 0 24 17" version="1.1" xmlns="http://www.w3.org/2000/svg" xmlns:xlink="http://www.w3.org/1999/xlink" xml:space="preserve" xmlns:serif="http://www.serif.com/" style="fill-rule:evenodd;clip-rule:evenodd;stroke-linejoin:round;stroke-miterlimit:2;">
    <path fill="currentColor" d="M23.498,2.641c-0.276,-1.038 -1.086,-1.854 -2.122,-2.136c-1.871,-0.505 -9.376,-0.505 -9.376,-0.505c-0,0 -7.505,0 -9.377,0.505c-1.036,0.283 -1.845,1.098 -2.121,2.136c-0.502,1.884 -0.502,5.814 -0.502,5.814c-0,0 -0,3.93 0.502,5.814c0.276,1.038 1.086,1.854 2.122,2.136c1.871,0.505 9.376,0.505 9.376,0.505c0,-0 7.505,-0 9.377,-0.505c1.036,-0.282 1.847,-1.098 2.122,-2.136c0.501,-1.884 0.501,-5.814 0.501,-5.814c-0,-0 -0,-3.93 -0.502,-5.814Zm-13.953,9.382l-0,-7.136l6.273,3.568l-6.273,3.568Z" style="fill-rule:nonzero;"/>
</svg>
