<?xml version="1.0" encoding="UTF-8" standalone="no"?>
<!DOCTYPE svg PUBLIC "-//W3C//DTD SVG 1.1//EN" "http://www.w3.org/Graphics/SVG/1.1/DTD/svg11.dtd">
<svg width="100%" height="100%" viewBox="0 0 25 21" version="1.1" xmlns="http://www.w3.org/2000/svg" xmlns:xlink="http://www.w3.org/1999/xlink" xml:space="preserve" xmlns:serif="http://www.serif.com/" style="fill-rule:evenodd;clip-rule:evenodd;stroke-linejoin:round;stroke-miterlimit:2;">
    <path fill="currentColor" d="M23.977,4.812c-0.105,2.338 -1.739,5.543 -4.894,9.609c-3.268,4.247 -6.026,6.37 -8.29,6.37c-1.409,-0 -2.578,-1.294 -3.553,-3.881l-1.918,-7.114c-0.719,-2.584 -1.488,-3.878 -2.312,-3.878c-0.179,0 -0.806,0.378 -1.881,1.132l-1.129,-1.457c1.175,-1.034 2.342,-2.076 3.501,-3.128c1.579,-1.368 2.765,-2.085 3.554,-2.159c1.867,-0.18 3.016,1.1 3.447,3.838c0.465,2.953 0.789,4.789 0.971,5.507c0.539,2.45 1.131,3.674 1.776,3.674c0.502,0 1.256,-0.796 2.265,-2.385c1.004,-1.589 1.54,-2.797 1.612,-3.628c0.144,-1.371 -0.395,-2.061 -1.614,-2.061c-0.574,0 -1.167,0.121 -1.777,0.391c1.186,-3.868 3.434,-5.757 6.762,-5.637c2.473,0.06 3.628,1.664 3.493,4.797l-0.013,0.01Z" style="fill-rule:nonzero;"/>
</svg>
